<svg xmlns="http://www.w3.org/2000/svg" xmlns:xlink="http://www.w3.org/1999/xlink" width="500" height="503.48" viewBox="0 0 500 503.48">
  <defs>
    <radialGradient id="radial-gradient" cx="0.5" cy="0.5" r="0.501" gradientUnits="objectBoundingBox">
      <stop offset="0" stop-color="#f7ca52"/>
      <stop offset="0.257" stop-color="#f7ca54"/>
      <stop offset="0.411" stop-color="#f7cd5c"/>
      <stop offset="0.538" stop-color="#f8d16b"/>
      <stop offset="0.651" stop-color="#f9d77f"/>
      <stop offset="0.753" stop-color="#fadf99"/>
      <stop offset="0.849" stop-color="#fbe9ba"/>
      <stop offset="0.938" stop-color="#fdf5df"/>
      <stop offset="1" stop-color="#fff"/>
    </radialGradient>
  </defs>
  <g id="グループ_29" data-name="グループ 29" transform="translate(-710 -1909)">
    <path id="パス_109" data-name="パス 109" d="M882.7,2039.552l-6.277-10.215q4.973-3.344,10.222-6.286a150.125,150.125,0,0,1,146.714,0q5.242,2.945,10.222,6.285l-6.277,10.216q-4.98-3.381-10.212-6.3a138.434,138.434,0,0,0-134.18,0Q887.681,2036.17,882.7,2039.552Zm-6.562-33.6a170.561,170.561,0,0,1,167.728,0q5.2,2.961,10.212,6.3l10.454-17.014q-5-3.3-10.214-6.3a190.22,190.22,0,0,0-188.633,0q-5.214,2.988-10.213,6.3l10.454,17.014Q870.928,2008.914,876.136,2005.95ZM960,2042.908a110.075,110.075,0,0,1,63.147,19.684l4.707-7.662a119.781,119.781,0,0,0-135.708,0l4.707,7.662A110.075,110.075,0,0,1,960,2042.908Zm49.47,41.944,2.655-4.321a89.952,89.952,0,0,0-104.25,0l2.655,4.322a84.726,84.726,0,0,1,98.94,0Zm-202.3,102.532q1.182,5.9,2.819,11.664l11.656-2.813q-1.677-5.781-2.837-11.66a138.432,138.432,0,0,1,41.464-127.612q4.391-4.071,9.148-7.766l-7.776-9.126q-4.716,3.7-9.137,7.779a150.132,150.132,0,0,0-45.337,139.534Zm-19.51,4.708a170.559,170.559,0,0,1,51.83-159.518q4.425-4.036,9.148-7.766l-12.95-15.2q-4.686,3.736-9.148,7.766a190.224,190.224,0,0,0-58.291,179.4q1.23,5.883,2.836,11.66l19.411-4.684Q788.871,2197.961,787.662,2192.092Zm90.15-114.546a109.928,109.928,0,0,1,9.148-7.766l-5.832-6.845A119.791,119.791,0,0,0,839.191,2192l8.742-2.11a111.239,111.239,0,0,1,29.879-112.346Zm16.945,19.887a85.225,85.225,0,0,1,9.148-7.767l-3.29-3.861a89.946,89.946,0,0,0-32.215,99.148l4.931-1.189a84.712,84.712,0,0,1,21.426-86.331ZM871.747,2273.7a137.228,137.228,0,0,1-42.384-54.821q-2.344-5.51-4.209-11.238l-11.22,4.226q1.879,5.688,4.225,11.231a150.121,150.121,0,0,0,115.931,89.916q5.947.887,11.93,1.3l1.3-11.919q-6.008-.379-11.932-1.28A137.227,137.227,0,0,1,871.747,2273.7Zm-19.612,25.286a169.021,169.021,0,0,1-52.759-68.814q-2.3-5.531-4.208-11.238l-18.687,7.037q1.927,5.674,4.209,11.238a190.221,190.221,0,0,0,149.055,115.607q5.952.835,11.931,1.281l2.167-19.85q-6-.429-11.931-1.281A169.022,169.022,0,0,1,852.135,2298.981Zm36.159-46.621a110.091,110.091,0,0,1-37.834-54.254l-8.416,3.169a119.794,119.794,0,0,0,107.236,83.172l.976-8.94a110.067,110.067,0,0,1-61.962-23.147Zm15.935-20.544A84.736,84.736,0,0,1,874.91,2188.9l-4.747,1.788a89.944,89.944,0,0,0,82.378,63.891l.55-5.042a84.737,84.737,0,0,1-48.862-17.719Zm151.379,51.362a149.3,149.3,0,0,0,46.233-60.085q2.339-5.541,4.225-11.231l-11.22-4.226q-1.863,5.724-4.209,11.238a138.435,138.435,0,0,1-106.026,82.234q-5.921.9-11.932,1.28l1.3,11.919q5.978-.4,11.93-1.3A149.3,149.3,0,0,0,1055.608,2283.178Zm65.016-53.011a170.56,170.56,0,0,1-132.536,102.794q-5.928.851-11.931,1.281l2.167,19.85q5.976-.456,11.931-1.281A190.222,190.222,0,0,0,1139.31,2237.2q2.29-5.558,4.209-11.238l-18.687-7.037Q1122.924,2224.633,1120.624,2230.167Zm-83.4,29.3a119.474,119.474,0,0,0,40.734-58.2l-8.416-3.169a110.7,110.7,0,0,1-99.8,77.4l.976,8.94a119.465,119.465,0,0,0,66.5-24.975Zm-18.386-23.7a89.812,89.812,0,0,0,31-45.081l-4.746-1.788a84.724,84.724,0,0,1-78.181,60.637l.55,5.042a89.8,89.8,0,0,0,51.377-18.81Zm31.742-186.57q4.755,3.691,9.148,7.766a138.438,138.438,0,0,1,41.464,127.612q-1.159,5.875-2.837,11.66l11.656,2.813q1.642-5.762,2.819-11.664a150.131,150.131,0,0,0-45.337-139.534q-4.422-4.075-9.137-7.779Zm95.829,50.144a189.123,189.123,0,0,0-52.949-81.966q-4.453-4.037-9.148-7.766l-12.951,15.2q4.722,3.727,9.149,7.766a170.56,170.56,0,0,1,51.83,159.518q-1.208,5.866-2.836,11.66l19.411,4.684q1.594-5.778,2.836-11.66A189.116,189.116,0,0,0,1146.407,2099.341Zm-74.34,90.551,8.742,2.11q1.7-5.745,2.828-11.662a119.782,119.782,0,0,0-44.765-117.405l-5.832,6.845a110.71,110.71,0,0,1,39.027,120.112Zm-25.4-6.128,4.931,1.189a89.959,89.959,0,0,0-32.215-99.148l-3.29,3.861a84.722,84.722,0,0,1,30.574,94.1Z" fill="url(#radial-gradient)"/>
    <path id="パス_110" data-name="パス 110" d="M856.877,2283.394l-45,45.8a7.127,7.127,0,0,0-1.877,4.968v41.473c0,3.514,2.239,6.362,5,6.362h90c2.761,0,5-2.848,5-6.362v-41.473a7.127,7.127,0,0,0-1.877-4.968l-45-45.8A4.2,4.2,0,0,0,856.877,2283.394Z" fill="#69f"/>
    <path id="パス_111" data-name="パス 111" d="M1056.877,2283.394l-45,45.8a7.127,7.127,0,0,0-1.877,4.968v41.473c0,3.514,2.239,6.362,5,6.362h90c2.761,0,5-2.848,5-6.362v-41.473a7.127,7.127,0,0,0-1.877-4.968l-45-45.8A4.2,4.2,0,0,0,1056.877,2283.394Z" fill="#a8e5a8"/>
    <path id="パス_112" data-name="パス 112" d="M1156.877,2060.394l-45,45.8a7.127,7.127,0,0,0-1.877,4.968v41.473c0,3.514,2.239,6.362,5,6.362h90c2.761,0,5-2.848,5-6.362v-41.473a7.127,7.127,0,0,0-1.877-4.968l-45-45.8A4.2,4.2,0,0,0,1156.877,2060.394Z" fill="#ff9357"/>
    <path id="パス_113" data-name="パス 113" d="M956.877,1910.394l-45,45.8a7.127,7.127,0,0,0-1.877,4.968v41.473c0,3.514,2.239,6.362,5,6.362h90c2.761,0,5-2.848,5-6.362v-41.473a7.127,7.127,0,0,0-1.877-4.968l-45-45.8A4.2,4.2,0,0,0,956.877,1910.394Z" fill="#f8a"/>
    <path id="パス_114" data-name="パス 114" d="M756.877,2060.394l-45,45.8a7.127,7.127,0,0,0-1.877,4.968v41.473c0,3.514,2.239,6.362,5,6.362h90c2.761,0,5-2.848,5-6.362v-41.473a7.127,7.127,0,0,0-1.877-4.968l-45-45.8A4.2,4.2,0,0,0,756.877,2060.394Z" fill="#96c"/>
    <text id="新築住宅" transform="translate(960 2032.48)" font-size="21" font-family="HiraginoSans-W3, Hiragino Sans"><tspan x="-42" y="0">新築住宅</tspan></text>
    <text id="防音室" transform="translate(960 2167.624)" font-size="36" font-family="HiraginoSans-W3, Hiragino Sans"><tspan x="-54" y="0">防音室</tspan></text>
    <text id="既存建物_改装" data-name="既存建物
改装" transform="translate(1160 2182.48)" font-size="21" font-family="HiraginoSans-W3, Hiragino Sans"><tspan x="-42" y="0">既存建物</tspan><tspan y="0" font-family="Helvetica"></tspan><tspan x="-21" y="25">改装</tspan></text>
    <text id="防音用_離れ家" data-name="防音用
離れ家" transform="translate(760 2182.48)" font-size="21" font-family="HiraginoSans-W3, Hiragino Sans"><tspan x="-31" y="0">防音用</tspan><tspan y="0" font-family="Helvetica"></tspan><tspan x="-31" y="25">離れ家</tspan></text>
    <text id="マンション" transform="translate(860 2409.48)" font-size="21" font-family="HiraginoSans-W3, Hiragino Sans"><tspan x="-52" y="0">マンション</tspan></text>
    <text id="中古住宅" transform="translate(1060 2409.48)" font-size="21" font-family="HiraginoSans-W3, Hiragino Sans"><tspan x="-42" y="0">中古住宅</tspan></text>
  </g>
</svg>
